<svg version="1.1" xmlns="http://www.w3.org/2000/svg" viewBox="0 0 64 64" fill="currentColor">
  <!-- Ghost body outline -->
  <path d="M31.854,7.292c-9.699,0-17.589,7.891-17.589,17.59v21.803c0,2.067-0.738,3.641-2.558,5.443
    c-0.66,0.672-1.202,2.111,0.007,3.321c0.771,0.771,2.317,0.915,3.363,0.915c0.365,0,0.669-0.018,0.858-0.032
    c1.592-0.123,3-0.563,4.025-1.235c0.085,0.119,0.17,0.237,0.285,0.353c0.771,0.771,2.318,0.915,3.363,0.915
    c0.365,0,0.67-0.018,0.858-0.032c1.592-0.123,3.001-0.563,4.025-1.235c0.085,0.118,0.171,0.237,0.286,0.353
    c0.77,0.771,2.317,0.915,3.362,0.915c0.365,0,0.669-0.018,0.857-0.032c1.592-0.123,3.001-0.563,4.026-1.235
    c0.085,0.118,0.17,0.237,0.285,0.353c1.038,1.04,3.49,0.938,4.22,0.883c2.029-0.156,3.771-0.823,4.778-1.831
    c2.081-2.08,3.137-4.231,3.137-6.395V24.882C49.444,15.183,41.554,7.292,31.854,7.292z M47.444,48.106
    c0,1.613-0.858,3.289-2.551,4.98c-1.582,1.582-5.586,1.429-6.17,0.948c-0.1-0.1-0.235-0.236,0.018-0.519l0.207-0.327
    c-0.05-0.119-0.124-0.23-0.222-0.327c-0.394-0.388-1.029-0.38-1.414,0.014l-0.94,0.959c-1.584,1.583-5.587,1.426-6.17,0.948
    c-0.1-0.1-0.236-0.236,0.018-0.518l0.206-0.326c-0.05-0.119-0.124-0.231-0.222-0.327c-0.396-0.388-1.028-0.383-1.414,0.012
    l-0.943,0.96c-1.583,1.584-5.587,1.429-6.17,0.948c-0.1-0.1-0.235-0.236,0.018-0.518l0.207-0.327
    c-0.05-0.119-0.124-0.23-0.222-0.327c-0.395-0.388-1.028-0.38-1.414,0.014l-0.94,0.959c-1.583,1.583-5.586,1.428-6.169,0.948
    c-0.1-0.1-0.237-0.236-0.004-0.496c2.201-2.181,3.141-4.23,3.141-6.854V24.882c0-8.597,6.994-15.59,15.589-15.59
    c8.597,0,15.59,6.994,15.59,15.59V48.106z"/>
  <!-- Left eye -->
  <path d="M29.958,29.199c-1.921,0-3.369-2.468-3.369-5.74c0-3.271,1.448-5.739,3.369-5.739
    c1.922,0,3.371,2.468,3.371,5.739C33.329,26.731,31.88,29.199,29.958,29.199z M29.958,19.72
    c-0.47,0-1.369,1.456-1.369,3.739s0.899,3.74,1.369,3.74c0.471,0,1.371-1.457,1.371-3.74S30.429,19.72,29.958,19.72z"/>
  <!-- Right eye -->
  <path d="M38.491,29.199c-1.922,0-3.371-2.468-3.371-5.74c0-3.271,1.449-5.739,3.371-5.739
    c1.921,0,3.369,2.468,3.369,5.739C41.86,26.731,40.412,29.199,38.491,29.199z M38.491,19.72
    c-0.471,0-1.371,1.456-1.371,3.739s0.9,3.74,1.371,3.74c0.47,0,1.369-1.457,1.369-3.74S38.961,19.72,38.491,19.72z"/>
  <!-- Mouth -->
  <path d="M34.5,43c-2.523,0-4.5-2.636-4.5-6s1.977-6,4.5-6s4.5,2.636,4.5,6S37.023,43,34.5,43z M34.5,33
    c-1.355,0-2.5,1.832-2.5,4s1.145,4,2.5,4s2.5-1.832,2.5-4S35.855,33,34.5,33z"/>
</svg>
